<svg width="214" height="211" viewBox="0 0 214 211" fill="none" xmlns="http://www.w3.org/2000/svg">
<path d="M53.4423 34.2879C53.4423 34.2879 85.6014 58.6915 134.492 13.0606C177.911 -27.4639 213.363 36.4747 213.611 67.0935C213.933 106.758 170.192 138.493 191.419 164.546C212.646 190.598 149.322 233.617 115.194 196.386C72.7398 150.072 61.2381 187.703 37.0395 187.703C19.6718 187.703 -15.9859 144.548 8.09337 112.443C28.3557 85.4261 17.3054 76.4598 11.9527 67.0935C4.23385 53.5853 22.5664 16.9202 53.4423 34.2879Z" fill="#EEEEEE" fill-opacity="0.53"/>
<path d="M105.474 89.7767V180.337L35.162 149.967L35.4974 59.7341L105.474 89.7767Z" fill="black"/>
<path d="M174.946 150.737L105.975 179.639V90.161L174.946 60.7792V150.737Z" fill="black" stroke="#3F3F3F"/>
<path d="M105.474 89.7768L175.787 60.3265L106.027 29.4037L35.162 59.5902L105.474 89.7768Z" fill="#BFBDBD" fill-opacity="0.84"/>
<path d="M61.6672 48.2996L131.711 78.7873L132.348 101.005L151.945 92.9182L151.353 70.5606L79.2362 40.8157L61.6672 48.2996Z" fill="black"/>
<path d="M127.723 122.323C128.833 122.323 129.733 120.68 129.733 118.654C129.733 116.627 128.833 114.985 127.723 114.985C126.613 114.985 125.713 116.627 125.713 118.654C125.713 120.68 126.613 122.323 127.723 122.323Z" fill="white"/>
<path d="M160.106 109.129C161.216 109.129 162.116 107.486 162.116 105.46C162.116 103.434 161.216 101.791 160.106 101.791C158.996 101.791 158.096 103.434 158.096 105.46C158.096 107.486 158.996 109.129 160.106 109.129Z" fill="white"/>
<path d="M139.371 141.691L138.065 141.184C140.957 133.739 144.584 129.637 148.844 128.993C152.92 128.377 156.353 131.185 157.599 132.756L156.502 133.626C155.64 132.539 152.624 129.838 149.054 130.378C145.378 130.933 142.029 134.845 139.371 141.691Z" fill="white"/>
</svg>
